<svg xmlns="http://www.w3.org/2000/svg" viewBox="0 0 1600 900" width="1600" height="900">
  <rect width="1600" height="900" fill="#87CEEB"/>
  <rect y="300" width="1600" height="600" fill="#3a7a3a"/>
  <line x1="0" y1="300" x2="1600" y2="300" stroke="#fff" stroke-width="4"/>
  <line x1="800" y1="300" x2="800" y2="900" stroke="#fff" stroke-width="4"/>
  <ellipse cx="800" cy="550" rx="200" ry="110" fill="none" stroke="#fff" stroke-width="3"/>
  <circle cx="800" cy="520" r="6" fill="#fff"/>
  <rect x="0" y="300" width="1600" height="90" fill="#4a8a4a" opacity="0.3"/>
  <rect x="0" y="480" width="1600" height="90" fill="#4a8a4a" opacity="0.3"/>
  <rect x="0" y="660" width="1600" height="90" fill="#4a8a4a" opacity="0.3"/>
  <ellipse cx="750" cy="520" rx="17" ry="30" fill="#cc0000"/>
  <ellipse cx="850" cy="530" rx="17" ry="30" fill="#0000cc"/>
  <ellipse cx="700" cy="560" rx="17" ry="30" fill="#cc0000"/>
  <ellipse cx="900" cy="545" rx="17" ry="30" fill="#0000cc"/>
  <ellipse cx="650" cy="600" rx="17" ry="30" fill="#cc0000"/>
  <rect x="0" y="0" width="400" height="300" fill="#5a3520" opacity="0.6"/>
  <rect x="1200" y="0" width="400" height="300" fill="#5a3520" opacity="0.6"/>
  <circle cx="800" cy="432" r="14" fill="#f5f5f5" stroke="#333" stroke-width="2"/>
  <path d="M800 418 L808 425 L805 437 L795 437 L792 425 Z" fill="#333"/>
</svg>
